<mxfile host="app.diagrams.net" agent="Mozilla/5.0 (Windows NT 10.0; Win64; x64) AppleWebKit/537.36 (KHTML, like Gecko) Chrome/132.0.0.0 Safari/537.36" version="26.0.14">
  <diagram name="PÃ¡gina-1" id="MzcNPxRj_frOuU32tWis">
    <mxGraphModel dx="1059" dy="605" grid="1" gridSize="10" guides="1" tooltips="1" connect="1" arrows="1" fold="1" page="1" pageScale="1" pageWidth="827" pageHeight="1169" math="0" shadow="0">
      <root>
        <mxCell id="0" />
        <mxCell id="1" parent="0" />
        <mxCell id="212_0LT7zSDeFnBgG4PX-1" value="" style="rounded=0;whiteSpace=wrap;html=1;" vertex="1" parent="1">
          <mxGeometry x="70" y="550" width="120" height="60" as="geometry" />
        </mxCell>
        <mxCell id="212_0LT7zSDeFnBgG4PX-2" value="" style="rounded=0;whiteSpace=wrap;html=1;" vertex="1" parent="1">
          <mxGeometry x="390" y="550" width="120" height="60" as="geometry" />
        </mxCell>
        <mxCell id="212_0LT7zSDeFnBgG4PX-3" value="" style="rounded=0;whiteSpace=wrap;html=1;" vertex="1" parent="1">
          <mxGeometry x="670" y="550" width="120" height="60" as="geometry" />
        </mxCell>
        <mxCell id="212_0LT7zSDeFnBgG4PX-4" value="" style="rhombus;whiteSpace=wrap;html=1;" vertex="1" parent="1">
          <mxGeometry x="250" y="540" width="80" height="80" as="geometry" />
        </mxCell>
        <mxCell id="212_0LT7zSDeFnBgG4PX-5" value="" style="rhombus;whiteSpace=wrap;html=1;" vertex="1" parent="1">
          <mxGeometry x="560" y="540" width="80" height="80" as="geometry" />
        </mxCell>
        <mxCell id="212_0LT7zSDeFnBgG4PX-6" value="Clientes" style="text;html=1;align=center;verticalAlign=middle;whiteSpace=wrap;rounded=0;" vertex="1" parent="1">
          <mxGeometry x="100" y="565" width="60" height="30" as="geometry" />
        </mxCell>
        <mxCell id="212_0LT7zSDeFnBgG4PX-7" value="Pedidos" style="text;html=1;align=center;verticalAlign=middle;whiteSpace=wrap;rounded=0;" vertex="1" parent="1">
          <mxGeometry x="420" y="565" width="60" height="30" as="geometry" />
        </mxCell>
        <mxCell id="212_0LT7zSDeFnBgG4PX-8" value="Produtos" style="text;html=1;align=center;verticalAlign=middle;whiteSpace=wrap;rounded=0;" vertex="1" parent="1">
          <mxGeometry x="700" y="565" width="60" height="30" as="geometry" />
        </mxCell>
        <mxCell id="212_0LT7zSDeFnBgG4PX-9" value="idCliente" style="ellipse;whiteSpace=wrap;html=1;align=center;" vertex="1" parent="1">
          <mxGeometry x="80" y="480" width="100" height="40" as="geometry" />
        </mxCell>
        <mxCell id="212_0LT7zSDeFnBgG4PX-10" value="Nome" style="ellipse;whiteSpace=wrap;html=1;align=center;" vertex="1" parent="1">
          <mxGeometry x="140" y="650" width="100" height="40" as="geometry" />
        </mxCell>
        <mxCell id="212_0LT7zSDeFnBgG4PX-11" value="E-mail" style="ellipse;whiteSpace=wrap;html=1;align=center;" vertex="1" parent="1">
          <mxGeometry x="20" y="650" width="100" height="40" as="geometry" />
        </mxCell>
        <mxCell id="212_0LT7zSDeFnBgG4PX-12" value="" style="endArrow=none;html=1;rounded=0;entryX=1;entryY=1;entryDx=0;entryDy=0;" edge="1" parent="1" target="212_0LT7zSDeFnBgG4PX-1">
          <mxGeometry relative="1" as="geometry">
            <mxPoint x="190" y="650" as="sourcePoint" />
            <mxPoint x="330" y="629" as="targetPoint" />
          </mxGeometry>
        </mxCell>
        <mxCell id="212_0LT7zSDeFnBgG4PX-13" value="" style="endArrow=none;html=1;rounded=0;exitX=0.64;exitY=0;exitDx=0;exitDy=0;exitPerimeter=0;entryX=0.122;entryY=0.967;entryDx=0;entryDy=0;entryPerimeter=0;" edge="1" parent="1" source="212_0LT7zSDeFnBgG4PX-11" target="212_0LT7zSDeFnBgG4PX-1">
          <mxGeometry relative="1" as="geometry">
            <mxPoint x="90" y="640" as="sourcePoint" />
            <mxPoint x="250" y="640" as="targetPoint" />
          </mxGeometry>
        </mxCell>
        <mxCell id="212_0LT7zSDeFnBgG4PX-14" value="" style="endArrow=none;html=1;rounded=0;exitX=0.5;exitY=1;exitDx=0;exitDy=0;entryX=0.5;entryY=0;entryDx=0;entryDy=0;" edge="1" parent="1" source="212_0LT7zSDeFnBgG4PX-9" target="212_0LT7zSDeFnBgG4PX-1">
          <mxGeometry relative="1" as="geometry">
            <mxPoint x="130" y="539" as="sourcePoint" />
            <mxPoint x="290" y="539" as="targetPoint" />
          </mxGeometry>
        </mxCell>
        <mxCell id="212_0LT7zSDeFnBgG4PX-16" value="" style="edgeStyle=entityRelationEdgeStyle;fontSize=12;html=1;endArrow=ERoneToMany;rounded=0;exitX=1;exitY=0.5;exitDx=0;exitDy=0;entryX=0;entryY=0.5;entryDx=0;entryDy=0;" edge="1" parent="1" source="212_0LT7zSDeFnBgG4PX-1" target="212_0LT7zSDeFnBgG4PX-2">
          <mxGeometry width="100" height="100" relative="1" as="geometry">
            <mxPoint x="370" y="650" as="sourcePoint" />
            <mxPoint x="470" y="550" as="targetPoint" />
          </mxGeometry>
        </mxCell>
        <mxCell id="212_0LT7zSDeFnBgG4PX-17" value="idCliente" style="ellipse;whiteSpace=wrap;html=1;align=center;" vertex="1" parent="1">
          <mxGeometry x="330" y="650" width="100" height="40" as="geometry" />
        </mxCell>
        <mxCell id="212_0LT7zSDeFnBgG4PX-18" value="idProduto" style="ellipse;whiteSpace=wrap;html=1;align=center;" vertex="1" parent="1">
          <mxGeometry x="460" y="650" width="100" height="40" as="geometry" />
        </mxCell>
        <mxCell id="212_0LT7zSDeFnBgG4PX-19" value="idPedido" style="ellipse;whiteSpace=wrap;html=1;align=center;" vertex="1" parent="1">
          <mxGeometry x="340" y="480" width="100" height="40" as="geometry" />
        </mxCell>
        <mxCell id="212_0LT7zSDeFnBgG4PX-20" value="Data" style="ellipse;whiteSpace=wrap;html=1;align=center;" vertex="1" parent="1">
          <mxGeometry x="460" y="480" width="100" height="40" as="geometry" />
        </mxCell>
        <mxCell id="212_0LT7zSDeFnBgG4PX-21" value="" style="endArrow=none;html=1;rounded=0;exitX=0.5;exitY=1;exitDx=0;exitDy=0;entryX=0;entryY=0;entryDx=0;entryDy=0;" edge="1" parent="1" source="212_0LT7zSDeFnBgG4PX-19" target="212_0LT7zSDeFnBgG4PX-2">
          <mxGeometry relative="1" as="geometry">
            <mxPoint x="340" y="600" as="sourcePoint" />
            <mxPoint x="500" y="600" as="targetPoint" />
          </mxGeometry>
        </mxCell>
        <mxCell id="212_0LT7zSDeFnBgG4PX-22" value="" style="endArrow=none;html=1;rounded=0;exitX=0.922;exitY=0;exitDx=0;exitDy=0;exitPerimeter=0;" edge="1" parent="1" source="212_0LT7zSDeFnBgG4PX-2">
          <mxGeometry relative="1" as="geometry">
            <mxPoint x="498" y="550" as="sourcePoint" />
            <mxPoint x="500" y="520" as="targetPoint" />
          </mxGeometry>
        </mxCell>
        <mxCell id="212_0LT7zSDeFnBgG4PX-23" value="" style="endArrow=none;html=1;rounded=0;entryX=0;entryY=1;entryDx=0;entryDy=0;" edge="1" parent="1" target="212_0LT7zSDeFnBgG4PX-2">
          <mxGeometry relative="1" as="geometry">
            <mxPoint x="390" y="650" as="sourcePoint" />
            <mxPoint x="396" y="620" as="targetPoint" />
          </mxGeometry>
        </mxCell>
        <mxCell id="212_0LT7zSDeFnBgG4PX-24" value="" style="endArrow=none;html=1;rounded=0;entryX=0.5;entryY=0;entryDx=0;entryDy=0;exitX=1;exitY=1;exitDx=0;exitDy=0;" edge="1" parent="1" source="212_0LT7zSDeFnBgG4PX-2" target="212_0LT7zSDeFnBgG4PX-18">
          <mxGeometry relative="1" as="geometry">
            <mxPoint x="340" y="600" as="sourcePoint" />
            <mxPoint x="500" y="600" as="targetPoint" />
          </mxGeometry>
        </mxCell>
        <mxCell id="212_0LT7zSDeFnBgG4PX-25" value="idProduto" style="ellipse;whiteSpace=wrap;html=1;align=center;" vertex="1" parent="1">
          <mxGeometry x="630" y="470" width="100" height="40" as="geometry" />
        </mxCell>
        <mxCell id="212_0LT7zSDeFnBgG4PX-26" value="" style="endArrow=none;html=1;rounded=0;entryX=0.089;entryY=0.033;entryDx=0;entryDy=0;entryPerimeter=0;exitX=0.5;exitY=1;exitDx=0;exitDy=0;" edge="1" parent="1" source="212_0LT7zSDeFnBgG4PX-25" target="212_0LT7zSDeFnBgG4PX-3">
          <mxGeometry relative="1" as="geometry">
            <mxPoint x="340" y="600" as="sourcePoint" />
            <mxPoint x="500" y="600" as="targetPoint" />
          </mxGeometry>
        </mxCell>
        <mxCell id="212_0LT7zSDeFnBgG4PX-27" value="Marca" style="ellipse;whiteSpace=wrap;html=1;align=center;" vertex="1" parent="1">
          <mxGeometry x="730" y="470" width="100" height="40" as="geometry" />
        </mxCell>
        <mxCell id="212_0LT7zSDeFnBgG4PX-28" value="" style="endArrow=none;html=1;rounded=0;entryX=0.5;entryY=1;entryDx=0;entryDy=0;exitX=0.922;exitY=0.033;exitDx=0;exitDy=0;exitPerimeter=0;" edge="1" parent="1" source="212_0LT7zSDeFnBgG4PX-3" target="212_0LT7zSDeFnBgG4PX-27">
          <mxGeometry relative="1" as="geometry">
            <mxPoint x="340" y="600" as="sourcePoint" />
            <mxPoint x="500" y="600" as="targetPoint" />
          </mxGeometry>
        </mxCell>
        <mxCell id="212_0LT7zSDeFnBgG4PX-29" value="Valor" style="ellipse;whiteSpace=wrap;html=1;align=center;" vertex="1" parent="1">
          <mxGeometry x="690" y="660" width="100" height="40" as="geometry" />
        </mxCell>
        <mxCell id="212_0LT7zSDeFnBgG4PX-30" value="" style="endArrow=none;html=1;rounded=0;entryX=0.5;entryY=0;entryDx=0;entryDy=0;exitX=0.583;exitY=1.011;exitDx=0;exitDy=0;exitPerimeter=0;" edge="1" parent="1" source="212_0LT7zSDeFnBgG4PX-3" target="212_0LT7zSDeFnBgG4PX-29">
          <mxGeometry relative="1" as="geometry">
            <mxPoint x="340" y="600" as="sourcePoint" />
            <mxPoint x="500" y="600" as="targetPoint" />
          </mxGeometry>
        </mxCell>
        <mxCell id="212_0LT7zSDeFnBgG4PX-31" value="" style="edgeStyle=entityRelationEdgeStyle;fontSize=12;html=1;endArrow=ERoneToMany;rounded=0;entryX=0;entryY=0.5;entryDx=0;entryDy=0;exitX=1;exitY=0.5;exitDx=0;exitDy=0;" edge="1" parent="1" source="212_0LT7zSDeFnBgG4PX-2" target="212_0LT7zSDeFnBgG4PX-3">
          <mxGeometry width="100" height="100" relative="1" as="geometry">
            <mxPoint x="370" y="650" as="sourcePoint" />
            <mxPoint x="470" y="550" as="targetPoint" />
          </mxGeometry>
        </mxCell>
        <mxCell id="212_0LT7zSDeFnBgG4PX-33" value="&lt;h1 style=&quot;margin-top: 0px;&quot;&gt;&amp;nbsp;Diagrama ER- Projeto loja&amp;nbsp;&lt;/h1&gt;&lt;div&gt;&lt;font size=&quot;3&quot;&gt;Desenvolvido por : Eduardo Santos Mikalkenas&lt;/font&gt;&lt;/div&gt;" style="text;html=1;whiteSpace=wrap;overflow=hidden;rounded=0;" vertex="1" parent="1">
          <mxGeometry x="40" y="710" width="390" height="120" as="geometry" />
        </mxCell>
      </root>
    </mxGraphModel>
  </diagram>
</mxfile>
